<mxfile host="app.diagrams.net" modified="2024-03-02T05:00:47.766Z" agent="Mozilla/5.0 (Windows NT 10.0; Win64; x64) AppleWebKit/537.36 (KHTML, like Gecko) Chrome/122.0.0.0 Safari/537.36" version="24.0.0" etag="Nd4VqAVkaSTIB_kr7dbs" type="github">
  <diagram name="第 1 页" id="wE-llDTJC8p3BpJ5vDI8">
    <mxGraphModel>
      <root>
        <mxCell id="0" />
        <mxCell id="1" parent="0" />
      </root>
    </mxGraphModel>
  </diagram>
</mxfile>
